# xmcd CD database file
#
# Track frame offsets:
#	150
#	24019
#	55871
#	62802
#	80469
#	94897
#	111457
#	124024
#	148318
#	166261
#	190749
#	216622
#	228206
#	262396
#
# Disc length: 3731 seconds
#
# Revision: 0
# Processed by: cddbd v1.5.1PL0 Copyright (c) Steve Scherf et al.
# Submitted via: CDex 1.51
#
DISCID=ce0e910e
DTITLE=Jan Klare - Das Böse Ding - Purple Jazz
DYEAR=2004
DGENRE=Jazz
TTITLE0=First Stereo
TTITLE1=Yuri
TTITLE2=Oh Lord
TTITLE3=Manic Depression
TTITLE4=The shape of jazz that was
TTITLE5=Readymade
TTITLE6=League of the crafty Krauts
TTITLE7=Bad Giant
TTITLE8=Hey There/Hold out you hand
TTITLE9=Glasbaustein
TTITLE10=Curtis
TTITLE11=Calypso de Luxe
TTITLE12=Moedec
TTITLE13=Does Moondog dream of electric bassdrums
EXTD=YEAR: 2004
EXTT0=
EXTT1=
EXTT2=
EXTT3=
EXTT4=
EXTT5=
EXTT6=
EXTT7=
EXTT8=
EXTT9=
EXTT10=
EXTT11=
EXTT12=
EXTT13=
PLAYORDER=
